<svg xmlns="http://www.w3.org/2000/svg" xmlns:xlink="http://www.w3.org/1999/xlink" viewBox="0 0 286 286"><defs><style>.cls-1{fill:url(#Unbenannter_Verlauf_678);}.cls-2{fill:#fff;}</style><radialGradient id="Unbenannter_Verlauf_678" cx="214.57" cy="124.47" r="320.47" gradientTransform="translate(130.96 -91.49) rotate(46.74) scale(1 0.7)" gradientUnits="userSpaceOnUse"><stop offset="0" stop-color="#c5b63e"/><stop offset="0.79" stop-color="#0485d1"/><stop offset="0.82" stop-color="#298dc1"/><stop offset="0.88" stop-color="#709ba3"/><stop offset="0.94" stop-color="#a3a68e"/><stop offset="0.98" stop-color="#c3ad80"/><stop offset="1" stop-color="#cfaf7b"/></radialGradient></defs><title>Element 1</title><g id="Ebene_2" data-name="Ebene 2"><g id="Ebene_1-2" data-name="Ebene 1"><rect class="cls-1" width="286" height="286" rx="34.44" ry="34.44"/><path class="cls-2" d="M52.6,224.8H85.43V126.3H52.6Zm180.58-90.29a16.41,16.41,0,0,0-16.42-16.42H164.92l7.84-37.51a13.13,13.13,0,0,0,.29-2.59,12.28,12.28,0,0,0-3.61-8.7l-8.74-8.66-54.05,54.05a16.52,16.52,0,0,0-4.8,11.61v82.08a16.41,16.41,0,0,0,16.42,16.42h73.87a16.37,16.37,0,0,0,15.1-10L232,156.91a16.41,16.41,0,0,0,1.19-6V135.2l-.08-.08Z"/></g></g></svg>