<svg xmlns="http://www.w3.org/2000/svg" viewBox="0 0 286 286"><defs><style>.cls-1{fill:#1e488f;}.cls-2{fill:#fff;}</style></defs><title>Element 1</title><g id="Ebene_2" data-name="Ebene 2"><g id="Ebene_1-2" data-name="Ebene 1"><rect class="cls-1" width="286" height="286" rx="34.44" ry="34.44"/><path class="cls-2" d="M52.6,224.8H85.43V126.3H52.6Zm180.58-90.29a16.41,16.41,0,0,0-16.42-16.42H164.92l7.84-37.51a13.13,13.13,0,0,0,.29-2.59,12.28,12.28,0,0,0-3.61-8.7l-8.74-8.66-54.05,54.05a16.52,16.52,0,0,0-4.8,11.61v82.08a16.41,16.41,0,0,0,16.42,16.42h73.87a16.37,16.37,0,0,0,15.1-10L232,156.91a16.41,16.41,0,0,0,1.19-6V135.2l-.08-.08Z"/></g></g></svg>