<svg xmlns="http://www.w3.org/2000/svg" xmlns:xlink="http://www.w3.org/1999/xlink" viewBox="0 0 1214 286.39"><defs><style>.cls-1{fill:url(#Unbenannter_Verlauf_678);}.cls-2{fill:#fff;}</style><radialGradient id="Unbenannter_Verlauf_678" cx="214.57" cy="124.86" r="320.47" gradientTransform="translate(131.16 -91.29) rotate(46.74) scale(1 0.7)" gradientUnits="userSpaceOnUse"><stop offset="0" stop-color="#c5b63e"/><stop offset="0.79" stop-color="#0485d1"/><stop offset="0.82" stop-color="#298dc1"/><stop offset="0.88" stop-color="#709ba3"/><stop offset="0.94" stop-color="#a3a68e"/><stop offset="0.98" stop-color="#c3ad80"/><stop offset="1" stop-color="#cfaf7b"/></radialGradient></defs><title>Element 2</title><g id="Ebene_2" data-name="Ebene 2"><g id="Ebene_1-2" data-name="Ebene 1"><rect class="cls-1" y="0.39" width="286" height="286" rx="34.44" ry="34.44"/><path class="cls-2" d="M52.6,225.19H85.43v-98.5H52.6ZM233.18,134.9a16.41,16.41,0,0,0-16.42-16.42H164.92L172.76,81a13.13,13.13,0,0,0,.29-2.59,12.28,12.28,0,0,0-3.61-8.7L160.7,61l-54.05,54.05a16.52,16.52,0,0,0-4.8,11.61v82.08a16.41,16.41,0,0,0,16.42,16.42h73.87a16.37,16.37,0,0,0,15.1-10L232,157.31a16.41,16.41,0,0,0,1.19-6V135.59l-.08-.08Z"/><path d="M349.15,192.42V0h44.1a118.64,118.64,0,0,1,26.11,2.5,51.41,51.41,0,0,1,19,8.36,35.3,35.3,0,0,1,12.07,15.9q4,10,4,24.55,0,18.1-5.4,29.59A33,33,0,0,1,431.2,97.6l26.69,94.82H422.73l-23-87.85H384.2v87.85Zm35-110.25h8.47q15.55,0,22.11-6.62t6.56-22.63q0-15.43-5.69-22.11t-20.89-6.67H384.2Z"/><path d="M520.68,194.63q-23.56,0-33.89-13t-10.33-38.41V104.33q0-25.42,10.45-38.41t33.66-13q12.3,0,20.72,3.6A28.47,28.47,0,0,1,554.4,67.43a49.34,49.34,0,0,1,6.67,16.89,115.92,115.92,0,0,1,2,23v18H508.73V146q0,4.29.06,6.67t.41,5.74a19.76,19.76,0,0,0,1.1,5.22,21.13,21.13,0,0,0,2,3.77,7,7,0,0,0,3.37,2.73,13.4,13.4,0,0,0,4.87.81q6.5,0,9.05-4.58t2.55-13.29v-7.89h30.75v5.45q0,21.35-10.62,32.67T520.68,194.63Zm-12-85.53h23.44V96q0-10.45-2.61-15t-9.23-4.53q-6.73,0-9.17,5.11t-2.44,18.57Z"/><path d="M626.41,194.63q-23.33,0-33.54-13.11t-10.21-38V103.75q0-24.83,10.21-37.83t33.54-13q21.93,0,31.86,10.33t9.92,32v11.14H637.9V94.7q0-10.45-2.5-14.56T626.76,76q-6.85,0-9.23,4.87T615.15,99v50.14q0,13.12,2.61,17.7t9,4.58q6.5,0,8.82-4.47t2.32-13.52V138.69h30.29v13q0,21.35-10.15,32.15T626.41,194.63Z"/><path d="M730.86,194.63q-22.17,0-33-12.48T687,146.46V101.08q0-23.21,10.85-35.69t33-12.48q22.28,0,33.25,12.48t11,35.69v45.38q0,23.21-11,35.69T730.86,194.63Zm.12-22.86a11,11,0,0,0,6.44-1.74,9.72,9.72,0,0,0,3.6-5.4,37.8,37.8,0,0,0,1.45-7.08q.35-3.42.35-8.88V98.88q0-4.29-.17-7.14a50.08,50.08,0,0,0-.81-6.21,14.42,14.42,0,0,0-1.91-5.28A10.87,10.87,0,0,0,736.43,77,10.38,10.38,0,0,0,731,75.67a10.75,10.75,0,0,0-6.44,1.8,10,10,0,0,0-3.6,5.45A37.73,37.73,0,0,0,719.49,90q-.35,3.42-.35,8.88v49.79q0,4.29.17,7.14a48,48,0,0,0,.81,6.15,14.31,14.31,0,0,0,1.91,5.22,10.82,10.82,0,0,0,3.48,3.25A10.36,10.36,0,0,0,731,171.76Z"/><path d="M797.36,192.42V55h30.87V67.08Q842,52.57,860.84,52.57q17.18,0,22.86,16.83,14.51-16.83,34.7-16.83,11.49,0,18.45,8.36t7,24.26V192.42H913V88q0-7.54-2.5-10.68t-7.37-3q-8.47.23-17.06,8,0,.46.06,1.39c0,.62.06,1.12.06,1.51V192.42H855.39V88q0-7.54-2.5-10.68t-7.49-3q-8.12.23-17.18,8.12v110Z"/><path d="M969.47,192.42,972.6,0h36l27.85,135.2L1065.1,0h35.16l3.25,192.42h-26.46l-2.32-132.54L1047,192.42h-20.54l-28.09-133-2.09,133Z"/><path d="M1171.64,194.63q-23.56,0-33.89-13t-10.33-38.41V104.33q0-25.42,10.45-38.41t33.66-13q12.3,0,20.72,3.6a28.47,28.47,0,0,1,13.11,10.91A49.33,49.33,0,0,1,1212,84.31a115.92,115.92,0,0,1,2,23v18h-54.31V146q0,4.29.06,6.67t.41,5.74a19.78,19.78,0,0,0,1.1,5.22,21.16,21.16,0,0,0,2,3.77,7,7,0,0,0,3.37,2.73,13.4,13.4,0,0,0,4.87.81q6.5,0,9.05-4.58t2.55-13.29v-7.89h30.75v5.45q0,21.35-10.62,32.67T1171.64,194.63Zm-12-85.53h23.44V96q0-10.45-2.61-15t-9.23-4.53q-6.73,0-9.17,5.11t-2.44,18.57Z"/><path d="M375.12,250.56l-13.88,34.06H357.1l-13.88-34.06h3.68a1.53,1.53,0,0,1,1,.31,1.91,1.91,0,0,1,.57.78l9.6,24q.31.81.61,1.76t.54,2q.24-1,.5-2t.57-1.76l9.58-24a1.74,1.74,0,0,1,.56-.75,1.53,1.53,0,0,1,1-.34Z"/><path d="M426.29,267.61a19.67,19.67,0,0,1-1.21,7,16.09,16.09,0,0,1-3.42,5.5,15.29,15.29,0,0,1-5.31,3.58,19.09,19.09,0,0,1-13.7,0,15.31,15.31,0,0,1-5.3-3.58,16.09,16.09,0,0,1-3.42-5.5,21,21,0,0,1,0-14,16.23,16.23,0,0,1,3.42-5.51,15.38,15.38,0,0,1,5.3-3.6,18.93,18.93,0,0,1,13.7,0,15.36,15.36,0,0,1,5.31,3.6,16.23,16.23,0,0,1,3.42,5.51A19.67,19.67,0,0,1,426.29,267.61Zm-4.73,0a17.31,17.31,0,0,0-.86-5.63,11.92,11.92,0,0,0-2.42-4.22,10.52,10.52,0,0,0-3.8-2.65,13.83,13.83,0,0,0-10,0,10.63,10.63,0,0,0-3.81,2.65,11.82,11.82,0,0,0-2.44,4.22,18.93,18.93,0,0,0,0,11.25,11.84,11.84,0,0,0,2.44,4.21,10.5,10.5,0,0,0,3.81,2.64,14,14,0,0,0,10,0,10.39,10.39,0,0,0,3.8-2.64,11.94,11.94,0,0,0,2.42-4.21A17.2,17.2,0,0,0,421.56,267.61Z"/><path d="M462.18,281a9.5,9.5,0,0,0,3.78-.71,7.93,7.93,0,0,0,2.82-2,8.74,8.74,0,0,0,1.76-3.07,12.13,12.13,0,0,0,.61-3.92v-20.7h4.59v20.7a15.54,15.54,0,0,1-.94,5.47,12.7,12.7,0,0,1-2.69,4.36,12.27,12.27,0,0,1-4.27,2.89,15.82,15.82,0,0,1-11.31,0,12.39,12.39,0,0,1-4.28-2.89,12.6,12.6,0,0,1-2.7-4.36,15.53,15.53,0,0,1-.94-5.47v-20.7h4.59v20.68a12.12,12.12,0,0,0,.61,3.92,8.73,8.73,0,0,0,1.76,3.07,8,8,0,0,0,2.83,2A9.46,9.46,0,0,0,462.18,281Z"/><path d="M524.07,277.59a.88.88,0,0,1,.67.31l1.83,2a14.58,14.58,0,0,1-5.07,3.78,17.37,17.37,0,0,1-7.21,1.35,16.86,16.86,0,0,1-6.66-1.27,14.62,14.62,0,0,1-5.11-3.57,16.11,16.11,0,0,1-3.28-5.5,20.56,20.56,0,0,1-1.16-7.06,19.83,19.83,0,0,1,1.21-7.06A16.16,16.16,0,0,1,502.7,255a15.24,15.24,0,0,1,5.26-3.58,17.52,17.52,0,0,1,6.77-1.27,16.5,16.5,0,0,1,6.42,1.16,16.16,16.16,0,0,1,4.9,3.16l-1.52,2.12a1.25,1.25,0,0,1-.37.39,1.06,1.06,0,0,1-.61.15,1.88,1.88,0,0,1-1-.46,15.9,15.9,0,0,0-1.62-1,12,12,0,0,0-6.18-1.5,12.38,12.38,0,0,0-4.83.92,10.54,10.54,0,0,0-3.77,2.65,12.23,12.23,0,0,0-2.46,4.23,16.87,16.87,0,0,0-.88,5.63,16.43,16.43,0,0,0,.92,5.68,12.53,12.53,0,0,0,2.5,4.22,10.54,10.54,0,0,0,3.73,2.63,11.87,11.87,0,0,0,4.65.9,19.15,19.15,0,0,0,2.75-.18,11.22,11.22,0,0,0,2.26-.56,9.46,9.46,0,0,0,1.92-1,13.66,13.66,0,0,0,1.77-1.39A1.23,1.23,0,0,1,524.07,277.59Z"/><path d="M575.68,250.56v34.06h-4.61v-15.5H552.69v15.5h-4.61V250.56h4.61v15.19h18.37V250.56Z"/><path d="M621.55,280.87l0,3.76h-21V250.56h21v3.76H605.15v11.31h13.26v3.61H605.15v11.62Z"/><path d="M669.32,284.62h-4.09a2,2,0,0,1-1.85-1l-8.84-12.17a2.62,2.62,0,0,0-.87-.82,3.16,3.16,0,0,0-1.44-.25h-3.49v14.21h-4.59V250.56h9.63a21,21,0,0,1,5.59.65,10.67,10.67,0,0,1,3.89,1.89,7.56,7.56,0,0,1,2.27,3,10,10,0,0,1,.74,3.91,9.79,9.79,0,0,1-.57,3.38,8.93,8.93,0,0,1-1.65,2.82,9.88,9.88,0,0,1-2.64,2.13,13,13,0,0,1-3.53,1.33,4.56,4.56,0,0,1,1.52,1.45Zm-15.73-17.56a11.65,11.65,0,0,0,3.53-.49,7.22,7.22,0,0,0,2.57-1.38,5.72,5.72,0,0,0,1.56-2.13,7,7,0,0,0,.52-2.73,5.44,5.44,0,0,0-2-4.59q-2-1.54-6-1.55h-5v12.86Z"/><path d="M723,254.32v11.91h14V270H723v14.64h-4.61V250.56h21v3.76Z"/><path d="M792.63,267.61a19.66,19.66,0,0,1-1.21,7,16.08,16.08,0,0,1-3.42,5.5,15.29,15.29,0,0,1-5.31,3.58,19.09,19.09,0,0,1-13.7,0,15.3,15.3,0,0,1-5.3-3.58,16.08,16.08,0,0,1-3.42-5.5,20.94,20.94,0,0,1,0-14,16.21,16.21,0,0,1,3.42-5.51,15.37,15.37,0,0,1,5.3-3.6,18.92,18.92,0,0,1,13.7,0,15.36,15.36,0,0,1,5.31,3.6,16.21,16.21,0,0,1,3.42,5.51A19.67,19.67,0,0,1,792.63,267.61Zm-4.73,0A17.33,17.33,0,0,0,787,262a11.93,11.93,0,0,0-2.42-4.22,10.53,10.53,0,0,0-3.8-2.65,13.83,13.83,0,0,0-10,0,10.62,10.62,0,0,0-3.81,2.65,11.81,11.81,0,0,0-2.44,4.22,18.94,18.94,0,0,0,0,11.25,11.83,11.83,0,0,0,2.44,4.21,10.49,10.49,0,0,0,3.81,2.64,14,14,0,0,0,10,0,10.4,10.4,0,0,0,3.8-2.64,12,12,0,0,0,2.42-4.21A17.22,17.22,0,0,0,787.9,267.61Z"/><path d="M840.55,284.62h-4.09a2,2,0,0,1-1.85-1l-8.84-12.17a2.64,2.64,0,0,0-.87-.82,3.16,3.16,0,0,0-1.44-.25H820v14.21h-4.59V250.56H825a21,21,0,0,1,5.59.65,10.67,10.67,0,0,1,3.89,1.89,7.56,7.56,0,0,1,2.27,3,10,10,0,0,1,.74,3.91,9.82,9.82,0,0,1-.57,3.38,8.93,8.93,0,0,1-1.65,2.82,9.87,9.87,0,0,1-2.64,2.13,13,13,0,0,1-3.53,1.33,4.57,4.57,0,0,1,1.52,1.45Zm-15.73-17.56a11.66,11.66,0,0,0,3.53-.49,7.23,7.23,0,0,0,2.57-1.38,5.74,5.74,0,0,0,1.56-2.13,7,7,0,0,0,.52-2.73,5.44,5.44,0,0,0-2-4.59q-2-1.54-6-1.55h-5v12.86Z"/><path d="M899.71,250.56a18.84,18.84,0,0,1,5.62.75,10.79,10.79,0,0,1,4,2.13,8.58,8.58,0,0,1,2.34,3.33,11.73,11.73,0,0,1,.77,4.35,11.08,11.08,0,0,1-.83,4.35,9.36,9.36,0,0,1-2.44,3.4,11.33,11.33,0,0,1-4,2.22,17.08,17.08,0,0,1-5.45.8h-5.47v12.74h-4.59V250.56Zm0,17.66a10.62,10.62,0,0,0,3.48-.52,7.26,7.26,0,0,0,2.54-1.46,6,6,0,0,0,1.56-2.25,7.69,7.69,0,0,0,.52-2.88,6.53,6.53,0,0,0-2-5.09q-2-1.83-6.1-1.83h-5.47v14Z"/><path d="M959.53,284.62h-4.09a2,2,0,0,1-1.85-1l-8.84-12.17a2.64,2.64,0,0,0-.87-.82,3.16,3.16,0,0,0-1.44-.25h-3.49v14.21h-4.59V250.56H944a21,21,0,0,1,5.59.65,10.67,10.67,0,0,1,3.89,1.89,7.56,7.56,0,0,1,2.27,3,10,10,0,0,1,.74,3.91,9.82,9.82,0,0,1-.57,3.38,8.93,8.93,0,0,1-1.65,2.82,9.87,9.87,0,0,1-2.64,2.13,13,13,0,0,1-3.53,1.33,4.57,4.57,0,0,1,1.52,1.45ZM943.8,267.06a11.66,11.66,0,0,0,3.53-.49,7.23,7.23,0,0,0,2.57-1.38,5.74,5.74,0,0,0,1.56-2.13,7,7,0,0,0,.52-2.73,5.44,5.44,0,0,0-2-4.59q-2-1.54-6-1.55h-5v12.86Z"/><path d="M1011.44,267.61a19.67,19.67,0,0,1-1.21,7,16.08,16.08,0,0,1-3.42,5.5,15.29,15.29,0,0,1-5.31,3.58,19.09,19.09,0,0,1-13.7,0,15.3,15.3,0,0,1-5.3-3.58,16.08,16.08,0,0,1-3.42-5.5,20.94,20.94,0,0,1,0-14,16.21,16.21,0,0,1,3.42-5.51,15.37,15.37,0,0,1,5.3-3.6,18.92,18.92,0,0,1,13.7,0,15.36,15.36,0,0,1,5.31,3.6,16.21,16.21,0,0,1,3.42,5.51A19.67,19.67,0,0,1,1011.44,267.61Zm-4.73,0a17.33,17.33,0,0,0-.86-5.63,11.93,11.93,0,0,0-2.42-4.22,10.53,10.53,0,0,0-3.8-2.65,13.83,13.83,0,0,0-10,0,10.62,10.62,0,0,0-3.81,2.65,11.81,11.81,0,0,0-2.44,4.22,18.94,18.94,0,0,0,0,11.25,11.83,11.83,0,0,0,2.44,4.21,10.49,10.49,0,0,0,3.81,2.64,14,14,0,0,0,10,0,10.4,10.4,0,0,0,3.8-2.64,12,12,0,0,0,2.42-4.21A17.22,17.22,0,0,0,1006.71,267.61Z"/><path d="M1077.82,250.56l-10.62,34.06h-4.14l-8.63-26c-.08-.25-.15-.52-.23-.81l-.23-.9q-.12.48-.24.9t-.24.81l-8.68,26h-4.14l-10.62-34.06h3.83a1.69,1.69,0,0,1,1,.31,1.38,1.38,0,0,1,.54.78l7,23.67q.17.64.32,1.38t.3,1.57q.17-.83.34-1.58t.39-1.37l8-23.67a1.74,1.74,0,0,1,.56-.75,1.53,1.53,0,0,1,1-.34h1.33a1.54,1.54,0,0,1,1,.31,1.9,1.9,0,0,1,.57.78l8,23.67q.21.62.39,1.33t.34,1.5q.12-.78.26-1.5t.31-1.33l7.06-23.67a1.48,1.48,0,0,1,.53-.76,1.57,1.57,0,0,1,1-.33Z"/><path d="M1118.4,280.75v3.87h-19.32V250.56h4.59v30.19Z"/><path d="M1160.66,280.87l0,3.76h-21V250.56h21v3.76h-16.38v11.31h13.26v3.61h-13.26v11.62Z"/><path d="M1208.43,284.62h-4.09a2,2,0,0,1-1.85-1l-8.84-12.17a2.64,2.64,0,0,0-.87-.82,3.16,3.16,0,0,0-1.44-.25h-3.49v14.21h-4.59V250.56h9.63a21,21,0,0,1,5.59.65,10.67,10.67,0,0,1,3.89,1.89,7.56,7.56,0,0,1,2.27,3,10,10,0,0,1,.74,3.91,9.82,9.82,0,0,1-.57,3.38,8.93,8.93,0,0,1-1.65,2.82,9.87,9.87,0,0,1-2.64,2.13,13,13,0,0,1-3.53,1.33,4.57,4.57,0,0,1,1.52,1.45Zm-15.73-17.56a11.66,11.66,0,0,0,3.53-.49,7.23,7.23,0,0,0,2.57-1.38,5.74,5.74,0,0,0,1.56-2.13,7,7,0,0,0,.52-2.73,5.44,5.44,0,0,0-2-4.59q-2-1.54-6-1.55h-5v12.86Z"/></g></g></svg>