<svg xmlns="http://www.w3.org/2000/svg" viewBox="0 0 1214 286"><defs><style>.cls-1{fill:#1e488f;}.cls-2{fill:#fff;}</style></defs><title>Element 2</title><g id="Ebene_2" data-name="Ebene 2"><g id="Ebene_1-2" data-name="Ebene 1"><rect class="cls-1" width="286" height="286" rx="34.44" ry="34.44"/><path class="cls-2" d="M52.6,224.8H85.43V126.3H52.6Zm180.58-90.29a16.41,16.41,0,0,0-16.42-16.42H164.92l7.84-37.51a13.13,13.13,0,0,0,.29-2.59,12.28,12.28,0,0,0-3.61-8.7l-8.74-8.66-54.05,54.05a16.52,16.52,0,0,0-4.8,11.61v82.08a16.41,16.41,0,0,0,16.42,16.42h73.87a16.37,16.37,0,0,0,15.1-10L232,156.91a16.41,16.41,0,0,0,1.19-6V135.2l-.08-.08Z"/><path d="M349.15,245V52.61h44.1a118.64,118.64,0,0,1,26.11,2.5,51.41,51.41,0,0,1,19,8.36,35.3,35.3,0,0,1,12.07,15.9q4,10,4,24.55,0,18.1-5.4,29.59a33,33,0,0,1-17.81,16.71L457.9,245H422.73l-23-87.85H384.2V245Zm35-110.25h8.47q15.55,0,22.11-6.62t6.56-22.63q0-15.43-5.69-22.11t-20.89-6.67H384.2Z"/><path d="M520.68,247.23q-23.56,0-33.89-13t-10.33-38.41V156.94q0-25.42,10.45-38.41t33.66-13q12.3,0,20.72,3.6A28.47,28.47,0,0,1,554.4,120a49.34,49.34,0,0,1,6.67,16.89,115.92,115.92,0,0,1,2,23v18H508.73v20.66q0,4.29.06,6.67t.41,5.74a19.76,19.76,0,0,0,1.1,5.22,21.13,21.13,0,0,0,2,3.77,7,7,0,0,0,3.37,2.73,13.4,13.4,0,0,0,4.87.81q6.5,0,9.05-4.58t2.55-13.29v-7.89h30.75v5.45q0,21.35-10.62,32.67T520.68,247.23Zm-12-85.53h23.44V148.59q0-10.45-2.61-15t-9.23-4.53q-6.73,0-9.17,5.11t-2.44,18.57Z"/><path d="M626.41,247.23q-23.33,0-33.54-13.11t-10.21-38V156.36q0-24.83,10.21-37.83t33.54-13q21.93,0,31.86,10.33t9.92,32V159H637.9V147.31q0-10.45-2.5-14.56t-8.65-4.12q-6.85,0-9.23,4.87t-2.38,18.1v50.14q0,13.12,2.61,17.7t9,4.58q6.5,0,8.82-4.47T637.9,206V191.3h30.29v13q0,21.35-10.15,32.15T626.41,247.23Z"/><path d="M730.86,247.23q-22.17,0-33-12.48T687,199.07V153.69q0-23.21,10.85-35.69t33-12.48q22.28,0,33.25,12.48t11,35.69v45.38q0,23.21-11,35.69T730.86,247.23Zm.12-22.86a11,11,0,0,0,6.44-1.74,9.72,9.72,0,0,0,3.6-5.4,37.8,37.8,0,0,0,1.45-7.08q.35-3.42.35-8.88V151.49q0-4.29-.17-7.14a50.08,50.08,0,0,0-.81-6.21,14.42,14.42,0,0,0-1.91-5.28,10.87,10.87,0,0,0-3.48-3.25,10.38,10.38,0,0,0-5.45-1.33,10.75,10.75,0,0,0-6.44,1.8,10,10,0,0,0-3.6,5.45,37.73,37.73,0,0,0-1.45,7.08q-.35,3.42-.35,8.88v49.79q0,4.29.17,7.14a48,48,0,0,0,.81,6.15,14.31,14.31,0,0,0,1.91,5.22,10.82,10.82,0,0,0,3.48,3.25A10.36,10.36,0,0,0,731,224.37Z"/><path d="M797.36,245V107.62h30.87v12.07q13.81-14.51,32.61-14.51,17.18,0,22.86,16.83,14.51-16.83,34.7-16.83,11.49,0,18.45,8.36t7,24.26V245H913V140.58q0-7.54-2.5-10.68t-7.37-3q-8.47.23-17.06,8,0,.46.06,1.39c0,.62.06,1.12.06,1.51V245H855.39V140.58q0-7.54-2.5-10.68t-7.49-3q-8.12.23-17.18,8.12V245Z"/><path d="M969.47,245,972.6,52.61h36l27.85,135.2,28.67-135.2h35.16L1103.51,245h-26.46l-2.32-132.54L1047,245h-20.54L998.37,112l-2.09,133Z"/><path d="M1171.64,247.23q-23.56,0-33.89-13t-10.33-38.41V156.94q0-25.42,10.45-38.41t33.66-13q12.3,0,20.72,3.6A28.47,28.47,0,0,1,1205.35,120a49.33,49.33,0,0,1,6.67,16.89,115.92,115.92,0,0,1,2,23v18h-54.31v20.66q0,4.29.06,6.67t.41,5.74a19.78,19.78,0,0,0,1.1,5.22,21.16,21.16,0,0,0,2,3.77,7,7,0,0,0,3.37,2.73,13.4,13.4,0,0,0,4.87.81q6.5,0,9.05-4.58t2.55-13.29v-7.89h30.75v5.45q0,21.35-10.62,32.67T1171.64,247.23Zm-12-85.53h23.44V148.59q0-10.45-2.61-15t-9.23-4.53q-6.73,0-9.17,5.11t-2.44,18.57Z"/></g></g></svg>